<?xml version="1.0" encoding="UTF-8"?><svg id="Layer_2" xmlns="http://www.w3.org/2000/svg" width="101mm" height="103mm" viewBox="0 0 286.3 291.97"><defs><style>.cls-1{fill:#f2d7d3;}.cls-1,.cls-2{stroke:#c33;stroke-miterlimit:10;stroke-width:3px;}.cls-2{fill:#c33;}</style></defs><path class="cls-1" d="M107.26,1.55c8.01-1.84,10.4-.92,13.64,0s7.58,5.05,10.61,6.2.87,2.76,9.31,1.38c8.45-1.38,12.13-.23,16.24,3.22s7.15.92,12.34,11.02c5.2,10.1,5.2,5.05,6.93,19.29,1.73,14.24,2.82,18.14.87,33.07s-1.73,18.83-3.9,23.65-2.12,7.07-12.27,15.31c-10.15,8.24-9.5,3.89-20.08,10.99-10.58,7.1-12.31,10.07-27.64,13.51-15.33,3.43-12.74,2.98-24.18,0-11.44-2.98-10.8-1.37-19.86-10.3s-12.95-15.57-22.02-19.23-16.41,0-20.29,5.04-2.81,13.74-6.48,14.88c-3.67,1.14-3.45,5.49-8.2-.46s-7.56-9.84-9.28-22.21-3.45-13.28-1.73-24.27,4.1-16.04,8.97-21.2c4.9-5.19,2.7-5.97,11.76-12.46,15.33-10.99,20.73-13.74,24.61-19s6.69-15.34,13.17-18.32c6.48-2.98,10.58-4.58,22.02-3.89,11.44.69,19.77-7.13,22.98-6.07s2.47-.15,2.47-.15Z"/><path class="cls-1" d="M136.76,167.15c-1.74.92-4.05,13.19-9.55,23.62-5.5,10.43-8.97,11.04-14.17,13.19s-10.41.92-31.82-3.37c-21.4-4.29-24.88-6.44-34.42-13.19-9.55-6.75-19.96-16.26-24.01-28.83-4.05-12.58-4.05-10.12,0-25.77,2.71-10.45,6.07-9.2,12.73-15.64,6.65-6.44,11.28-4.6,11.28-4.6,21.99,5.61,16.88,1.64,35.27,8.14,18.38,6.5,17.02,11.19,26.22,11.91s10.12,2.39,23.49-4.69,10.88-3.34,12.49-5.78"/><path class="cls-1" d="M103.5,197.52s4.02-7.36,6.78-4.91-6.76-4.91,10.28,4.91c13.31,7.67,16.2,10.96,30.66,7.48s15.33-7.78,19.96-14.84,11.99-12.61,14.17-23.62c3.47-17.48-3.18-17.48-2.31-29.75s-.06-15,1.39-14.08,2.66-7.39,5.55-8.93,6.98.2,16.49-8.59c11.28-10.43,17.64-15.34,17.93-21.16s3.18-10.43-1.74-23-4.05-19.02-13.02-24.54c-8.97-5.52-10.7-9.51-19.96-12.58s-24.57-4.91-24.01-2.15c2.89,14.11,4.05,16.56,10.99,34.66,6.94,18.1-1.16,15.03,10.12,19.32,11.28,4.29,13.02,3.99,15.04,6.75s4.34,6.13-.87,13.8-3.47,1.38-12.44,17.1c-8.97,15.72,1.16,19.53-13.59,28.21-14.75,8.68-23.14,10.52-25.45,13.59s-2.31,4.91-11.28,6.44-17.35,3.25-19.38-2.98,11.57-27.39,24.59-30.46,21.09-7.46,23.43-3.99c1.34,2,2.6,5.21-10.7,12.88s-36.33,18.52-35.87,11.66"/><path class="cls-1" d="M133,160.71c-10.12-2.76-16.5-2.39-14.75-13.19,1.57-9.75,16.2-10.12,26.9-26.69,10.7-16.56,11.81-24.85,19.35-32.82,7.55-7.97,11.88-4.49,11.59-16.97-.29-12.48,2.6-8.8-4.05-18.61s-3.18-10.74-11.57-17.48-13.32,1.13-19.38,2.15c-7.2,1.21-6.68-6.99-16.2-8.9-12.02-2.4-8.7-2.69-22.87,2.15-15.66,5.35-19.8,13.5-23.77,18.1s-8.32,10.12-6,18.4c2.31,8.28,4.92,13.8,9.26,16.87,4.34,3.07,10.89.55,21.25-.79s24.14,4.93,27.16-2.31c2.49-5.96,8.87-8.85,3.56-18.05-6.17-10.68-9.63-18.42-4.09-20.22,3-.98,7.97,2.65,15.12,10.59s15.18,11.79,14.84,20.82,5.45,11.91-4.77,22.38c-10.21,10.47-11.58,2.17-21.45,4.69s-10.89-2.53-20.09-2.53-14.64,3.25-21.11.36c-6.47-2.89-.23-5.73-13.68-7.58-9.99-1.37-18.6-1.66-21.89-12.47-2.84-9.33,2.72-14.85,4.06-22.52,2.04-11.64,11.34-12.95,17.83-13.4s3.47-7.22,6.87-9.03,13.92,1.44,18.36-1.44.99-8.3-13.28-10.11c-14.27-1.81-20.74-1.44-28.23,1.81s-13.06,8.82-17.02,19.5c-3.67,9.91-9.38,14.61-13.62,27.61-3.23,9.93-2.91,20.07,0,25.82,4.1,8.11,22.68,4.63,32.55,13.66,9.87,9.03,13,8.22,10.68,14.36s-9.9,10.45-11.91,16.72c-1.46,4.56-1.85,9.43,12.3,11.46,12.89,1.85,13.92,2.66,24.47.85,10.55-1.81-8.33,1,14.64-3.25,21.75-4.02,34.42-9.39,34.42-9.39"/><path class="cls-1" d="M94.46,84.26c-.83-1.83-1.99-7.06-2.54-8.48-2.56-6.69-1.87-9.55,2.06-16.11,4.77-7.94,9.53-12.64,13.62-13.36s14.64,3.61,13.62,7.58,3.75,9.39-4.43,14.08c-8.17,4.69-8.85,7.58-20.43,7.22s-14.75-3.64-14.73-9.47c.03-8.65,1.35-17.09,4.23-19.83,2.63-2.5,18.58-13.21,24.41-12.58,13.33,1.44,17.36,5.02,17.36,12.6"/><path class="cls-1" d="M99.77,71.05s.5-6.31,2.63-9.92,8.26-6.52,9.62-4.16,3.51,2.24,0,9.22-12.43,11.84-12.26,7.58,0-2.71,0-2.71Z"/><path class="cls-1" d="M179.06,74.1l-2.58,18.29s-1.83,10.07-3.53,12.97c-2,3.4-11.27,11.06-11.27,11.06l-19.67,10.21s18.06-4.94,23.85-3.27c1.01.29,2.65,2.22,2.63,3.27-.05,1.9-5.07,5.67-5.07,5.67l-16.83,10.49s-7.02,7.97-8.08,11.27c-.51,1.59,0,6.67,0,6.67l13.56-7.55,16.2-8.89,13.87-8.7s-1.41-10.38,0-13.42c.52-1.12,3.77-3.19,3.77-3.19,0,0,3.41-9.46,5.1-12.33,1.9-3.22,7.5-8.44,9.36-11.69,1.26-2.21,3.17-9.66,3.17-9.66l-4.71-5.15-19.77-6.03Z"/><line class="cls-1" x1="127.02" y1="49.79" x2="127.48" y2="43.56"/><path class="cls-2" d="M197.34,132.27c-1.51-.9-3.34-2.16-5.05-1.98-15.41,1.68-40.27.54-54.29,1.39-1.18.07,1.68,32.4.75,34.4l46.73-.79s3.33-.15,3.89.61c1.07,1.45.82,6.54-.76,6.84-8.72,1.65-24.74,2.36-24.74,2.36,0,0-17.34.79-25.11.96-.91.02-2.56,1.79-2.57,2.77-.09,10.27-1.08,28.54,0,37.15.21,1.65,3.26,2.94,4.78,3.25,10.92,2.25,28.83-.54,38.38-1.59,5.1-.56,12.95-.28,20.5-.64,1.21-.06,3.66,2.01,3.69,3.32.06,2.5-5.04,6.92-7.29,7.48-6.22,1.55-24.09,3.7-24.09,3.7,0,0-21.01.13-27.9-.65-3.16-.36-9.14-1.57-11.07-4.28-1.32-1.84-4.95-6.47-5.16-9.02-.88-10.76.68-41.66.68-41.66l.81-41.97v-12.2s2.08-1.41,2.87-1.43c8.91-.18,30.02.88,30.02.88,0,0,23.22.92,31.78.59,1.78-.07,5.5,3.23,6.09,5.43.79,2.98.77,7.27-2.93,5.07Z"/><path class="cls-2" d="M188.91,195.01s.5-5.21,1.23-6.79c1.25-2.73,6.03-7.49,9.07-8.2,7.74-1.8,16.89-1.67,22.54-1.64s16.29,1.34,21.56,2.58c5.13,1.21,15.08,5.4,19.11,8.67,1.31,1.06,3.35,3.84,3.92,5.39.63,1.71-.23,5.74-1.16,7.32-2.68,4.54-12.88,8.08-17.95,10.01-4.06,1.55-16.91,4.21-16.91,4.21l-16.17,2.82c-.28.05-1.78-17.76-3.19-23.42-.32-1.29-2.55-3.57-3.92-3.75-1.47-.19-4.48,1.4-4.5,2.81-.06,6.64-.4,21.78-.4,21.78l5.15,30.92,6.17,23.02.24.29c.73.63,1.76,6.33,3.33,7.02,1.17.51,3.75-3.04,3.99-4.26.77-4.01-1.97-14.83-1.97-14.83l-4.17-17.8,12.74,10.77,18.87,17.33,16.91,12.41s5.5,2.83,7.74,3.45c1.9.53,6.45,1.26,8.22.21,1.1-.65,2.6-3.26,1.56-4.04-3.44-2.55-9.66-5.52-9.66-5.52l-20.59-14.01-19.11-16.39-13.97-16.86,16.42-4.3,20.09-4.6s12.71-4.57,16.17-7.26c1.9-1.48,4.48-5.71,5.15-7.96,1-3.4-.04-10.8-1.47-14.05-1.67-3.78-8.32-9.49-11.76-11.94-3.65-2.6-12.26-5.91-16.66-7.03s-17.4-1.74-17.4-1.74h-20.58s-10.96,1.78-14.34,3.19c-2.75,1.14-7.66,4.61-8.79,7.18-.91,2.06-.44,6.23-.7,8.53-.36,3.17,4.38,7.25,5.2,6.5Z"/></svg>