<?xml version="1.0" encoding="UTF-8"?><svg id="Layer_1" xmlns="http://www.w3.org/2000/svg" width="1920" height="338" viewBox="0 0 1920 338"><defs><style>.cls-1{fill:#1d1b0e;}.cls-1,.cls-2,.cls-3,.cls-4,.cls-5{stroke-miterlimit:10;}.cls-1,.cls-3{stroke:#231f20;}.cls-2{opacity:.94;}.cls-2,.cls-4{fill:#fff;stroke:#fff;}.cls-3{fill:none;stroke-width:2px;}.cls-6{opacity:.62;}.cls-7{opacity:.56;}.cls-5{fill:#fef6aa;stroke:#fdf6ab;}</style></defs><path class="cls-3" d="M474.84,0c133.4,37.07,210.74,46.38,282.1,54.6,58.48,6.73,175.31,21.57,233.99,26.29,55.11,4.43,165.59,9.87,220.87,10.95,55.75,1.1,167.32,1.61,223.06,0,53.62-1.55,160.77-7.58,214.31-10.95,48.67-3.07,146.07-8.65,194.63-13.14,18.93-1.75,75.54-8.76,75.54-8.76"/><path class="cls-3" d="M231.65,0s150.69,51.97,201.43,67.7c59.41,18.42,179.48,51.04,239.7,66.59,50.51,13.04,152.26,36.34,203.45,46.41,57.6,11.32,231.65,38.34,231.65,38.34,0,0,190.16,24.51,253.8,30.27,78.37,7.09,235.63,14.59,314.23,18.16,60.83,2.77,243.42,8.07,243.42,8.07"/><path class="cls-3" d="M0,137.76s194.76,16.38,259.85,18.72c62.91,2.26,188.84.38,251.79,0,44.31-.27,132.96,1.05,177.26,0,47.38-1.12,142.12-5.36,189.35-9.36,51.5-4.36,154.23-16.12,205.46-22.93,34.81-4.62,104.3-14.73,138.99-20.18,39.83-6.26,119.33-19.78,159.13-26.23,32.2-5.22,96.91-13.88,128.92-20.18,34.04-6.69,101.52-23.04,134.96-32.28,21.28-5.88,84.6-25.33,84.6-25.33"/><g class="cls-7"><path class="cls-1" d="M661.53,43.49c-1.88.54-4.87,5.95-4.87,5.95l-.3,3.65,15.08.89s.53-5.89-.52-7.47c0,0-7.03-3.7-9.39-3.02Z"/><path class="cls-5" d="M653.11,52.69c-1.93.53-5.47,2.91-6.44,4.61-1.15,2.01-1.4,6.95-.76,9.17.75,2.62,2.87,8.18,5.26,9.59s7.88,3.42,10.55,3.45c3,.04,9.46,0,12.02-1.57,2.31-1.42,5.87-6.01,6.4-8.62.37-1.83-.18-5.67-.9-7.4-.84-2.02-2.74-6.34-4.68-7.44-4.66-2.63-16.28-3.21-21.44-1.79Z"/><path class="cls-4" d="M658.98,61.39c-1.15.51-1.89.49-2.35.91-.99.9-1.89,4.49-1.56,5.06,1,1.72,5.26,3.52,7.28,3.51s6.6-.65,7.76-2.26c.95-1.31.23-5.27-.99-6.37-1.86-1.7-7.85-1.88-10.16-.85Z"/></g><g class="cls-6"><polygon class="cls-1" points="758.83 151.91 756.03 157.59 749.7 157.21 749.08 167.84 773.81 169.3 774.43 158.67 769.83 158.4 758.83 151.91"/><path class="cls-5" d="M749.08,167.84l-2.51,5.77s-6.02,3.53-9.48,7.77c-1.45,1.78-3.02,6.19-2.99,8.4.04,2.48.86,7.75,2.64,9.68,2.39,2.59,8.9,7.55,12.67,8.69,2.3.7,7.12,1.97,9.58,2.15,3.11.23,12.44-.6,12.44-.6,0,0,10.88-4.09,13.21-6.77,1.77-2.04,3.28-7.39,3.08-9.98s-3.31-10.36-3.31-10.36c0,0-.44-2.07-2.18-3.22-.89-.59-7-4.31-7-4.31l-1.42-5.76-24.73-1.46Z"/><path class="cls-2" d="M755.23,181.84c-3.16.44-10.07,3.84-10.28,6.69-.25,3.38,5.57,9.95,9.24,10.87,4.43,1.11,14.95.07,18.01-2.94,1.8-1.76,1.94-7.5.56-9.58-2.35-3.55-13.02-5.68-17.54-5.04Z"/></g><g class="cls-7"><path class="cls-1" d="M815.85,64.37c-1.88.54-4.87,5.95-4.87,5.95l-.3,3.65,15.08.89s.53-5.89-.52-7.47c0,0-7.03-3.7-9.39-3.02Z"/><path class="cls-5" d="M807.43,73.57c-1.93.53-5.47,2.91-6.44,4.61-1.15,2.01-1.4,6.95-.76,9.17.75,2.62,2.87,8.18,5.26,9.59,2.28,1.35,7.88,3.42,10.55,3.45,3,.04,9.46,0,12.02-1.57,2.31-1.42,5.87-6.01,6.4-8.62.37-1.83-.18-5.67-.9-7.4-.84-2.02-2.74-6.34-4.68-7.44-4.66-2.63-16.28-3.21-21.44-1.79Z"/><path class="cls-4" d="M813.3,82.27c-1.15.51-1.89.49-2.35.91-.99.9-1.89,4.49-1.56,5.06,1,1.72,5.26,3.52,7.28,3.51s6.6-.65,7.76-2.26c.95-1.31.23-5.27-.99-6.37-1.86-1.7-7.85-1.88-10.16-.85Z"/></g><g class="cls-7"><path class="cls-1" d="M543.33,17.93c-1.88.54-4.87,5.95-4.87,5.95l-.3,3.65,15.08.89s.53-5.89-.52-7.47c0,0-7.03-3.7-9.39-3.02Z"/><path class="cls-5" d="M534.91,27.14c-1.93.53-5.47,2.91-6.44,4.61-1.15,2.01-1.4,6.95-.76,9.17.75,2.62,2.87,8.18,5.26,9.59s7.88,3.42,10.55,3.45c3,.04,9.46,0,12.02-1.57,2.31-1.42,5.87-6.01,6.4-8.62.37-1.83-.18-5.67-.9-7.4-.84-2.02-2.74-6.34-4.68-7.44-4.66-2.63-16.28-3.21-21.44-1.79Z"/><path class="cls-4" d="M540.78,35.84c-1.15.51-1.89.49-2.35.91-.99.9-1.89,4.49-1.56,5.06,1,1.72,5.26,3.52,7.28,3.51s6.6-.65,7.76-2.26c.95-1.31.23-5.27-.99-6.37-1.86-1.7-7.85-1.88-10.16-.85Z"/></g><g class="cls-7"><path class="cls-1" d="M970.86,78.25c-1.98.68-5.2,7.3-5.2,7.3l-.37,4.44,15.82.87s.64-7.17-.44-9.07c0,0-7.32-4.4-9.82-3.54Z"/><path class="cls-5" d="M961.9,89.57c-2.03.67-5.78,3.62-6.83,5.69-1.23,2.45-1.56,8.47-.93,11.16.75,3.17,2.9,9.9,5.39,11.59s8.23,4.04,11.03,4.05c3.14,0,9.94-.13,12.64-2.08,2.45-1.76,6.25-7.39,6.84-10.57.41-2.23-.11-6.89-.84-8.99-.85-2.45-2.79-7.67-4.81-8.98-4.85-3.14-17.04-3.68-22.49-1.88Z"/><path class="cls-4" d="M967.94,100.06c-1.22.64-1.99.62-2.48,1.14-1.05,1.11-2.04,5.48-1.7,6.17,1.03,2.07,5.47,4.2,7.6,4.17s6.94-.88,8.18-2.85c1.02-1.61.31-6.41-.95-7.73-1.93-2.04-8.21-2.17-10.65-.89Z"/></g><g class="cls-7"><path class="cls-1" d="M1115,87.56c-1.88.54-4.87,5.95-4.87,5.95l-.3,3.65,15.08.89s.53-5.89-.52-7.47c0,0-7.03-3.7-9.39-3.02Z"/><path class="cls-5" d="M1106.58,96.77c-1.93.53-5.47,2.91-6.44,4.61-1.15,2.01-1.4,6.95-.76,9.17.75,2.62,2.87,8.18,5.26,9.59s7.88,3.42,10.55,3.45c3,.04,9.46,0,12.02-1.57,2.31-1.42,5.87-6.01,6.4-8.62.37-1.83-.18-5.67-.9-7.4-.84-2.02-2.74-6.34-4.68-7.44-4.66-2.63-16.28-3.21-21.44-1.79Z"/><path class="cls-4" d="M1112.45,105.47c-1.15.51-1.89.49-2.35.91-.99.9-1.89,4.49-1.56,5.06,1,1.72,5.26,3.52,7.28,3.51s6.6-.65,7.76-2.26c.95-1.31.23-5.27-.99-6.37-1.86-1.7-7.85-1.88-10.16-.85Z"/></g><g class="cls-7"><path class="cls-1" d="M1275.79,93.55c-2.18,1.14-4.41,8.14-4.41,8.14l.62,4.24,18.96-3.24s-.96-6.85-2.69-8.35c0,0-9.74-2.23-12.48-.79Z"/><path class="cls-5" d="M1267.87,106.39c-2.25,1.15-5.99,4.85-6.74,7.06-.88,2.61.17,8.3,1.57,10.64,1.65,2.76,5.81,8.49,9.16,9.43,3.2.9,10.72,1.67,14.04.96,3.73-.8,11.75-2.67,14.49-5.17,2.48-2.27,5.64-8.49,5.58-11.61-.05-2.18-1.78-6.4-3.15-8.17-1.6-2.06-5.15-6.44-7.86-7.14-6.51-1.68-21.08.93-27.11,4.01Z"/><path class="cls-4" d="M1277.54,114.63c-1.29.91-2.21,1.09-2.67,1.69-.98,1.31-1.11,5.64-.55,6.19,1.72,1.67,7.49,2.52,10,1.94s8.01-2.6,9.02-4.75c.82-1.76-1.16-6.06-2.97-6.97-2.78-1.41-10.25.08-12.84,1.9Z"/></g><g class="cls-7"><path class="cls-1" d="M1495.09,61.97c-1.66,1.04-3.05,7.06-3.05,7.06l.71,3.59,14.74-3.29s-1.11-5.81-2.54-7.04c0,0-7.77-1.62-9.86-.32Z"/><path class="cls-5" d="M1489.52,73.14c-1.71,1.04-4.46,4.31-4.93,6.21-.55,2.24.56,7.07,1.78,9.02,1.44,2.31,5.01,7.07,7.69,7.78s8.52,1.12,11.09.42c2.89-.78,9.1-2.6,11.13-4.82,1.83-2,4-7.39,3.79-10.05-.15-1.86-1.73-5.41-2.9-6.87-1.36-1.71-4.38-5.35-6.54-5.87-5.2-1.25-16.53,1.39-21.11,4.18Z"/><path class="cls-4" d="M1497.55,79.89c-.97.81-1.68.99-2.01,1.52-.7,1.14-.58,4.84-.11,5.29,1.44,1.38,6.02,1.93,7.97,1.37s6.17-2.44,6.85-4.31c.56-1.52-1.23-5.13-2.69-5.86-2.26-1.12-8.06.35-10,1.98Z"/></g><g class="cls-7"><path class="cls-1" d="M1663.53,18.2c-1.49,1.27-1.99,7.43-1.99,7.43l1.23,3.45,14.1-5.41s-1.94-5.59-3.54-6.59c0,0-7.92-.47-9.8,1.13Z"/><path class="cls-5" d="M1659.65,30.07c-1.54,1.28-3.79,4.91-3.97,6.86-.22,2.3,1.59,6.91,3.08,8.67,1.76,2.07,5.98,6.26,8.74,6.57s8.59-.14,11.03-1.21c2.75-1.2,8.62-3.91,10.31-6.4,1.52-2.25,2.88-7.9,2.28-10.5-.42-1.82-2.5-5.09-3.87-6.37-1.6-1.5-5.11-4.65-7.33-4.84-5.33-.47-16.15,3.79-20.27,7.22Z"/><path class="cls-4" d="M1668.58,35.57c-.84.94-1.52,1.22-1.77,1.8-.53,1.23.13,4.87.66,5.25,1.62,1.15,6.23,1.03,8.08.19,1.85-.84,5.74-3.32,6.14-5.26.33-1.59-1.96-4.89-3.52-5.4-2.4-.78-7.92,1.53-9.6,3.42Z"/></g><g class="cls-7"><path class="cls-1" d="M25.72,139.59c-1.88.54-4.87,5.95-4.87,5.95l-.3,3.65,15.08.89s.53-5.89-.52-7.47c0,0-7.03-3.7-9.39-3.02Z"/><path class="cls-5" d="M17.3,148.8c-1.93.53-5.47,2.91-6.44,4.61-1.15,2.01-1.4,6.95-.76,9.17.75,2.62,2.87,8.18,5.26,9.59s7.88,3.42,10.55,3.45c3,.04,9.46,0,12.02-1.57,2.31-1.42,5.87-6.01,6.4-8.62.37-1.83-.18-5.67-.9-7.4-.84-2.02-2.74-6.34-4.68-7.44-4.66-2.63-16.28-3.21-21.44-1.79Z"/><path class="cls-4" d="M23.17,157.5c-1.15.51-1.89.49-2.35.91-.99.9-1.89,4.49-1.56,5.06,1,1.72,5.26,3.52,7.28,3.51s6.6-.65,7.76-2.26c.95-1.31.23-5.27-.99-6.37-1.86-1.7-7.85-1.88-10.16-.85Z"/></g><g class="cls-7"><path class="cls-1" d="M197,152.93c-1.88.54-4.87,5.95-4.87,5.95l-.3,3.65,15.08.89s.53-5.89-.52-7.47c0,0-7.03-3.7-9.39-3.02Z"/><path class="cls-5" d="M188.58,162.14c-1.93.53-5.47,2.91-6.44,4.61-1.15,2.01-1.4,6.95-.76,9.17.75,2.62,2.87,8.18,5.26,9.59s7.88,3.42,10.55,3.45c3,.04,9.46,0,12.02-1.57,2.31-1.42,5.87-6.01,6.4-8.62.37-1.83-.18-5.67-.9-7.4-.84-2.02-2.74-6.34-4.68-7.44-4.66-2.63-16.28-3.21-21.44-1.79Z"/><path class="cls-4" d="M194.45,170.84c-1.15.51-1.89.49-2.35.91-.99.9-1.89,4.49-1.56,5.06,1,1.72,5.26,3.52,7.28,3.51s6.6-.65,7.76-2.26c.95-1.31.23-5.27-.99-6.37-1.86-1.7-7.85-1.88-10.16-.85Z"/></g><g class="cls-7"><path class="cls-1" d="M347.53,159.65c-1.69.98-3.27,6.96-3.27,6.96l.6,3.61,14.84-2.84s-.93-5.84-2.33-7.11c0,0-7.72-1.86-9.84-.62Z"/><path class="cls-5" d="M341.62,170.64c-1.74.99-4.59,4.17-5.12,6.05-.62,2.23.35,7.08,1.5,9.07,1.37,2.35,4.79,7.22,7.45,8.01s8.48,1.38,11.07.76c2.91-.7,9.17-2.32,11.27-4.48,1.89-1.94,4.22-7.27,4.09-9.93-.09-1.86-1.56-5.46-2.68-6.96-1.31-1.75-4.21-5.48-6.36-6.06-5.16-1.41-16.57.88-21.23,3.53Z"/><path class="cls-4" d="M349.44,177.63c-.99.78-1.71.94-2.05,1.46-.74,1.12-.73,4.82-.27,5.28,1.39,1.42,5.96,2.12,7.92,1.62s6.24-2.25,6.97-4.09c.6-1.51-1.07-5.16-2.52-5.94-2.22-1.19-8.07.11-10.05,1.67Z"/></g><g class="cls-7"><path class="cls-1" d="M526.46,155.93c-2.12.94-4.67,7.39-4.67,7.39l.31,4.04,18.01-1.8s-.46-6.53-1.98-8.06c0,0-8.99-2.75-11.67-1.57Z"/><path class="cls-5" d="M518.19,167.54c-2.18.93-5.94,4.19-6.78,6.22-.99,2.4-.37,7.85.79,10.15,1.37,2.72,4.91,8.4,7.99,9.51s9.96,2.28,13.12,1.83c3.55-.51,11.2-1.74,13.94-3.93,2.48-1.98,5.85-7.65,5.99-10.59.1-2.06-1.26-6.16-2.43-7.92-1.36-2.05-4.42-6.42-6.91-7.26-6-2.02-19.85-.51-25.7,2Z"/><path class="cls-4" d="M526.74,175.96c-1.27.77-2.15.88-2.61,1.42-1,1.17-1.41,5.25-.91,5.81,1.5,1.69,6.87,2.87,9.27,2.49s7.69-1.92,8.77-3.89c.88-1.61-.7-5.79-2.34-6.78-2.52-1.51-9.63-.6-12.18.95Z"/></g><g class="cls-7"><path class="cls-1" d="M672.63,159.39c-2.11,1.17-4.21,8.48-4.21,8.48l.65,4.46,18.38-3.14s-1-7.2-2.69-8.8c0,0-9.48-2.47-12.13-.99Z"/><path class="cls-5" d="M665.06,172.76c-2.17,1.17-5.77,5.01-6.47,7.32-.83,2.72.25,8.71,1.63,11.19,1.63,2.92,5.73,8.99,9,10.02s10.43,1.89,13.65,1.19c3.62-.79,11.38-2.64,14.03-5.24,2.39-2.35,5.4-8.83,5.3-12.11-.07-2.29-1.79-6.74-3.14-8.61-1.57-2.19-5.06-6.83-7.7-7.6-6.34-1.85-20.47.7-26.29,3.84Z"/><path class="cls-4" d="M674.54,181.54c-1.24.93-2.14,1.11-2.57,1.74-.94,1.36-1.02,5.9-.47,6.49,1.68,1.78,7.3,2.74,9.74,2.17,2.44-.57,7.76-2.62,8.71-4.87.78-1.84-1.19-6.37-2.96-7.35-2.71-1.51-9.96-.06-12.45,1.82Z"/></g><g class="cls-7"><path class="cls-1" d="M909.15,146.25c-1.64,1.05-2.97,7.09-2.97,7.09l.75,3.59,14.7-3.46s-1.17-5.8-2.62-7.01c0,0-7.79-1.53-9.86-.21Z"/><path class="cls-5" d="M903.71,157.49c-1.7,1.06-4.41,4.36-4.86,6.26-.53,2.25.64,7.06,1.88,9,1.46,2.29,5.09,7.01,7.78,7.69s8.53,1.02,11.09.29c2.88-.82,9.07-2.71,11.07-4.95,1.81-2.02,3.92-7.44,3.67-10.09-.17-1.86-1.79-5.38-2.97-6.84-1.38-1.7-4.44-5.29-6.61-5.79-5.22-1.19-16.51,1.58-21.06,4.42Z"/><path class="cls-4" d="M911.81,164.14c-.96.82-1.67,1.01-1.99,1.54-.69,1.15-.53,4.84-.05,5.29,1.45,1.36,6.04,1.86,7.98,1.28s6.14-2.51,6.8-4.38c.54-1.53-1.29-5.11-2.76-5.82-2.27-1.09-8.05.45-9.98,2.09Z"/></g><g class="cls-7"><path class="cls-1" d="M1071.07,127.97c-1.78.8-3.98,6.57-3.98,6.57l.21,3.66,15.05-1.25s-.31-5.91-1.56-7.32c0,0-7.48-2.67-9.72-1.66Z"/><path class="cls-5" d="M1064.03,138.28c-1.83.8-5.01,3.65-5.73,5.47-.86,2.15-.41,7.08.53,9.18,1.11,2.48,4,7.69,6.56,8.76,2.45,1.02,8.29,2.27,10.93,1.93,2.97-.38,9.37-1.34,11.68-3.25,2.09-1.73,4.97-6.78,5.12-9.44.11-1.86-.98-5.59-1.93-7.2-1.11-1.88-3.61-5.89-5.68-6.71-4.98-1.95-16.57-.88-21.48,1.25Z"/><path class="cls-4" d="M1071.07,146.06c-1.07.67-1.8.75-2.2,1.23-.85,1.03-1.24,4.71-.83,5.23,1.23,1.56,5.7,2.74,7.71,2.45s6.44-1.57,7.37-3.33c.76-1.43-.52-5.25-1.87-6.17-2.08-1.42-8.03-.75-10.17.59Z"/></g><g class="cls-7"><path class="cls-1" d="M1214.47,106.33c-1.67,1.02-3.14,7.02-3.14,7.02l.67,3.6,14.78-3.11s-1.04-5.82-2.46-7.07c0,0-7.75-1.72-9.85-.44Z"/><path class="cls-5" d="M1208.77,117.43c-1.72,1.02-4.51,4.25-5.01,6.14-.58,2.24.47,7.07,1.67,9.05,1.41,2.33,4.92,7.13,7.6,7.87s8.5,1.22,11.08.56c2.9-.75,9.13-2.49,11.19-4.68,1.86-1.98,4.09-7.34,3.91-10-.13-1.86-1.66-5.43-2.81-6.91-1.34-1.73-4.31-5.4-6.47-5.95-5.19-1.31-16.55,1.19-21.16,3.92Z"/><path class="cls-4" d="M1216.71,124.28c-.98.8-1.69.97-2.03,1.49-.72,1.13-.64,4.83-.18,5.29,1.42,1.39,5.99,2.01,7.95,1.47s6.2-2.36,6.9-4.22c.57-1.52-1.16-5.14-2.62-5.89-2.24-1.15-8.06.26-10.02,1.86Z"/></g><g class="cls-7"><path class="cls-1" d="M1380.1,94.2c-1.88.54-4.87,5.95-4.87,5.95l-.3,3.65,15.08.89s.53-5.89-.52-7.47c0,0-7.03-3.7-9.39-3.02Z"/><path class="cls-5" d="M1371.68,103.41c-1.93.53-5.47,2.91-6.44,4.61-1.15,2.01-1.4,6.95-.76,9.17.75,2.62,2.87,8.18,5.26,9.59s7.88,3.42,10.55,3.45c3,.04,9.46,0,12.02-1.57,2.31-1.42,5.87-6.01,6.4-8.62.37-1.83-.18-5.67-.9-7.4-.84-2.02-2.74-6.34-4.68-7.44-4.66-2.63-16.28-3.21-21.44-1.79Z"/><path class="cls-4" d="M1377.55,112.1c-1.15.51-1.89.49-2.35.91-.99.9-1.89,4.49-1.56,5.06,1,1.72,5.26,3.52,7.28,3.51s6.6-.65,7.76-2.26c.95-1.31.23-5.27-.99-6.37-1.86-1.7-7.85-1.88-10.16-.85Z"/></g><g class="cls-7"><path class="cls-1" d="M1577.1,83.88c-1.88.54-4.87,5.95-4.87,5.95l-.3,3.65,15.08.89s.53-5.89-.52-7.47c0,0-7.03-3.7-9.39-3.02Z"/><path class="cls-5" d="M1568.69,93.09c-1.93.53-5.47,2.91-6.44,4.61-1.15,2.01-1.4,6.95-.76,9.17.75,2.62,2.87,8.18,5.26,9.59s7.88,3.42,10.55,3.45c3,.04,9.46,0,12.02-1.57,2.31-1.42,5.87-6.01,6.4-8.62.37-1.83-.18-5.67-.9-7.4-.84-2.02-2.74-6.34-4.68-7.44-4.66-2.63-16.28-3.21-21.44-1.79Z"/><path class="cls-4" d="M1574.55,101.79c-1.15.51-1.89.49-2.35.91-.99.9-1.89,4.49-1.56,5.06,1,1.72,5.26,3.52,7.28,3.51s6.6-.65,7.76-2.26c.95-1.31.23-5.27-.99-6.37-1.86-1.7-7.85-1.88-10.16-.85Z"/></g><g class="cls-7"><path class="cls-1" d="M1746.27,76.13c-1.88.54-4.87,5.95-4.87,5.95l-.3,3.65,15.08.89s.53-5.89-.52-7.47c0,0-7.03-3.7-9.39-3.02Z"/><path class="cls-5" d="M1737.85,85.34c-1.93.53-5.47,2.91-6.44,4.61-1.15,2.01-1.4,6.95-.76,9.17.75,2.62,2.87,8.18,5.26,9.59s7.88,3.42,10.55,3.45c3,.04,9.46,0,12.02-1.57,2.31-1.42,5.87-6.01,6.4-8.62.37-1.83-.18-5.67-.9-7.4-.84-2.02-2.74-6.34-4.68-7.44-4.66-2.63-16.28-3.21-21.44-1.79Z"/><path class="cls-4" d="M1743.72,94.04c-1.15.51-1.89.49-2.35.91-.99.9-1.89,4.49-1.56,5.06,1,1.72,5.26,3.52,7.28,3.51s6.6-.65,7.76-2.26c.95-1.31.23-5.27-.99-6.37-1.86-1.7-7.85-1.88-10.16-.85Z"/></g><g class="cls-7"><path class="cls-1" d="M1887.64,63.36c-1.88.54-4.87,5.95-4.87,5.95l-.3,3.65,15.08.89s.53-5.89-.52-7.47c0,0-7.03-3.7-9.39-3.02Z"/><path class="cls-5" d="M1879.22,72.57c-1.93.53-5.47,2.91-6.44,4.61-1.15,2.01-1.4,6.95-.76,9.17.75,2.62,2.87,8.18,5.26,9.59s7.88,3.42,10.55,3.45c3,.04,9.46,0,12.02-1.57,2.31-1.42,5.87-6.01,6.4-8.62.37-1.83-.18-5.67-.9-7.4-.84-2.02-2.74-6.34-4.68-7.44-4.66-2.63-16.28-3.21-21.44-1.79Z"/><path class="cls-4" d="M1885.09,81.26c-1.15.51-1.89.49-2.35.91-.99.9-1.89,4.49-1.56,5.06,1,1.72,5.26,3.52,7.28,3.51s6.6-.65,7.76-2.26c.95-1.31.23-5.27-.99-6.37-1.86-1.7-7.85-1.88-10.16-.85Z"/></g><g class="cls-6"><polygon class="cls-1" points="268.09 11.98 265 18.64 258.37 18.14 257.42 30.65 283.35 32.61 284.29 20.09 279.47 19.73 268.09 11.98"/><path class="cls-5" d="M257.42,30.65l-2.79,6.78s-6.42,4.1-10.17,9.07c-1.57,2.08-3.34,7.27-3.36,9.87-.03,2.93.69,9.15,2.51,11.44,2.44,3.08,9.14,8.98,13.08,10.37,2.4.84,7.43,2.39,10,2.63,3.26.3,13.08-.59,13.08-.59,0,0,11.54-4.72,14.05-7.86,1.91-2.39,3.64-8.68,3.5-11.74s-3.2-12.25-3.2-12.25c0,0-.4-2.45-2.21-3.82-.92-.7-7.23-5.15-7.23-5.15l-1.34-6.8-25.93-1.96Z"/><path class="cls-2" d="M263.51,47.23c-3.33.49-10.67,4.43-10.97,7.79-.36,3.98,5.59,11.79,9.42,12.9,4.63,1.35,15.7.22,18.99-3.3,1.93-2.06,2.24-8.82.85-11.29-2.37-4.2-13.52-6.82-18.29-6.11Z"/></g><g class="cls-6"><polygon class="cls-1" points="412.26 58.48 409.68 65.36 403.03 65.36 403.03 77.91 429.03 77.91 429.03 65.36 424.19 65.36 412.26 58.48"/><path class="cls-5" d="M403.03,77.91l-2.28,6.98s-6.1,4.57-9.46,9.81c-1.41,2.19-2.79,7.5-2.61,10.1.19,2.92,1.37,9.07,3.36,11.22,2.67,2.89,9.79,8.27,13.82,9.35,2.46.66,7.59,1.83,10.17,1.87,3.27.06,13-1.58,13-1.58,0,0,11.15-5.57,13.42-8.9,1.73-2.53,2.98-8.93,2.61-11.97s-4.11-11.97-4.11-11.97c0,0-.59-2.41-2.49-3.64-.97-.63-7.6-4.59-7.6-4.59l-1.85-6.68h-26Z"/><path class="cls-2" d="M410.34,93.98c-3.28.74-10.31,5.23-10.36,8.59-.06,4,6.46,11.33,10.36,12.16,4.71,1,15.67-.96,18.69-4.72,1.77-2.2,1.57-8.97,0-11.32-2.68-4.01-13.99-5.78-18.69-4.72Z"/></g><g class="cls-6"><polygon class="cls-1" points="562.52 103.77 559.63 107.71 555.03 106.55 553.02 114.56 571.02 119.09 573.03 111.08 569.68 110.24 562.52 103.77"/><path class="cls-5" d="M553.02,114.56l-2.69,4.06s-4.95,1.86-8.12,4.61c-1.33,1.16-3.13,4.3-3.43,5.99-.33,1.9-.5,6.03.53,7.75,1.39,2.31,5.46,6.98,8.07,8.38,1.59.85,4.96,2.49,6.74,2.97,2.26.61,9.26,1.26,9.26,1.26,0,0,8.61-1.61,10.72-3.34,1.6-1.31,3.49-5.18,3.73-7.19s-.93-8.36-.93-8.36c0,0-.02-1.64-1.14-2.76-.57-.57-4.53-4.25-4.53-4.25l-.21-4.59-18.01-4.53Z"/><path class="cls-2" d="M555.51,126.1c-2.39-.1-7.98,1.54-8.55,3.68-.68,2.54,2.66,8.36,5.23,9.57,3.11,1.46,11,2.12,13.7.25,1.58-1.1,2.52-5.45,1.81-7.23-1.21-3.03-8.77-6.13-12.19-6.27Z"/></g><g class="cls-6"><polygon class="cls-1" points="865.23 175.36 862 181.11 856.25 180.17 854.42 191.34 876.87 195.03 878.7 183.86 874.52 183.17 865.23 175.36"/><path class="cls-5" d="M854.42,191.34l-2.98,5.88s-5.93,3.2-9.59,7.38c-1.54,1.75-3.5,6.28-3.73,8.62-.26,2.63-.14,8.27,1.26,10.46,1.88,2.95,7.25,8.75,10.56,10.28,2.02.94,6.28,2.7,8.51,3.11,2.82.52,11.45.44,11.45.44,0,0,10.44-3.38,12.89-6.01,1.86-2,3.87-7.52,4-10.28s-1.8-11.23-1.8-11.23c0,0-.16-2.23-1.61-3.59-.75-.7-5.89-5.16-5.89-5.16l-.62-6.21-22.45-3.69Z"/><path class="cls-2" d="M858.39,206.67c-2.94.2-9.66,3.19-10.2,6.18-.63,3.55,3.92,11,7.17,12.29,3.92,1.56,13.67,1.37,16.82-1.54,1.85-1.71,2.66-7.76,1.65-10.07-1.73-3.95-11.24-7.13-15.45-6.85Z"/></g><g class="cls-6"><polygon class="cls-1" points="1026.24 201.79 1023.4 208.57 1016.76 208.33 1016.3 220.87 1042.28 221.82 1042.74 209.28 1037.91 209.1 1026.24 201.79"/><path class="cls-5" d="M1016.3,220.87l-2.53,6.89s-6.26,4.35-9.81,9.46c-1.49,2.14-3.06,7.39-2.98,10,.09,2.93,1.04,9.12,2.95,11.34,2.56,2.98,9.48,8.62,13.47,9.85,2.43.75,7.51,2.1,10.1,2.24,3.27.18,13.05-1.1,13.05-1.1,0,0,11.35-5.16,13.74-8.4,1.82-2.46,3.3-8.81,3.05-11.87s-3.67-12.11-3.67-12.11c0,0-.5-2.43-2.35-3.73-.95-.66-7.42-4.87-7.42-4.87l-1.6-6.75-25.98-.95Z"/><path class="cls-2" d="M1023.02,237.2c-3.3.62-10.49,4.84-10.66,8.21-.2,3.99,6.04,11.56,9.91,12.53,4.67,1.17,15.69-.38,18.85-4.03,1.85-2.14,1.9-8.9.41-11.31-2.53-4.11-13.77-6.29-18.51-5.4Z"/></g><g class="cls-6"><polygon class="cls-1" points="1236.64 229.04 1233.81 235.82 1227.16 235.57 1226.7 248.12 1252.69 249.07 1253.14 236.52 1248.31 236.35 1236.64 229.04"/><path class="cls-5" d="M1226.7,248.12l-2.53,6.89s-6.26,4.35-9.81,9.46c-1.49,2.14-3.06,7.39-2.98,10,.09,2.93,1.04,9.12,2.95,11.34,2.56,2.98,9.48,8.62,13.47,9.85,2.43.75,7.51,2.1,10.1,2.24,3.27.18,13.05-1.1,13.05-1.1,0,0,11.35-5.16,13.74-8.4,1.82-2.46,3.3-8.81,3.05-11.87s-3.67-12.11-3.67-12.11c0,0-.5-2.43-2.35-3.73-.95-.66-7.42-4.87-7.42-4.87l-1.6-6.75-25.98-.95Z"/><path class="cls-2" d="M1233.42,264.44c-3.3.62-10.49,4.84-10.66,8.21-.2,3.99,6.04,11.56,9.91,12.53,4.67,1.17,15.69-.38,18.85-4.03,1.85-2.14,1.9-8.9.41-11.31-2.53-4.11-13.77-6.29-18.51-5.4Z"/></g><g class="cls-6"><polygon class="cls-1" points="1481.46 251.13 1478.63 257.91 1471.98 257.67 1471.52 270.21 1497.51 271.16 1497.96 258.62 1493.13 258.44 1481.46 251.13"/><path class="cls-5" d="M1471.52,270.21l-2.53,6.89s-6.26,4.35-9.81,9.46c-1.49,2.14-3.06,7.39-2.98,10,.09,2.93,1.04,9.12,2.95,11.34,2.56,2.98,9.48,8.62,13.47,9.85,2.43.75,7.51,2.1,10.1,2.24,3.27.18,13.05-1.1,13.05-1.1,0,0,11.35-5.16,13.74-8.4,1.82-2.46,3.3-8.81,3.05-11.87s-3.67-12.11-3.67-12.11c0,0-.5-2.43-2.35-3.73-.95-.66-7.42-4.87-7.42-4.87l-1.6-6.75-25.98-.95Z"/><path class="cls-2" d="M1478.24,286.54c-3.3.62-10.49,4.84-10.66,8.21-.2,3.99,6.04,11.56,9.91,12.53,4.67,1.17,15.69-.38,18.85-4.03,1.85-2.14,1.9-8.9.41-11.31-2.53-4.11-13.77-6.29-18.51-5.4Z"/></g><g class="cls-6"><polygon class="cls-1" points="1688.34 260.67 1685.5 267.45 1678.85 267.21 1678.4 279.75 1704.38 280.7 1704.84 268.16 1700.01 267.98 1688.34 260.67"/><path class="cls-5" d="M1678.4,279.75l-2.53,6.89s-6.26,4.35-9.81,9.46c-1.49,2.14-3.06,7.39-2.98,10,.09,2.93,1.04,9.12,2.95,11.34,2.56,2.98,9.48,8.62,13.47,9.85,2.43.75,7.51,2.1,10.1,2.24,3.27.18,13.05-1.1,13.05-1.1,0,0,11.35-5.16,13.74-8.4,1.82-2.46,3.3-8.81,3.05-11.87s-3.67-12.11-3.67-12.11c0,0-.5-2.43-2.35-3.73-.95-.66-7.42-4.87-7.42-4.87l-1.6-6.75-25.98-.95Z"/><path class="cls-2" d="M1685.12,296.08c-3.3.62-10.49,4.84-10.66,8.21-.2,3.99,6.04,11.56,9.91,12.53,4.67,1.17,15.69-.38,18.85-4.03,1.85-2.14,1.9-8.9.41-11.31-2.53-4.11-13.77-6.29-18.51-5.4Z"/></g><g class="cls-6"><polygon class="cls-1" points="1887.14 269.14 1884.3 275.91 1877.66 275.67 1877.2 288.21 1903.18 289.16 1903.64 276.62 1898.81 276.44 1887.14 269.14"/><path class="cls-5" d="M1877.2,288.21l-2.53,6.89s-6.26,4.35-9.81,9.46c-1.49,2.14-3.06,7.39-2.98,10,.09,2.93,1.04,9.12,2.95,11.34,2.56,2.98,9.48,8.62,13.47,9.85,2.43.75,7.51,2.1,10.1,2.24,3.27.18,13.05-1.1,13.05-1.1,0,0,11.35-5.16,13.74-8.4,1.82-2.46,3.3-8.81,3.05-11.87s-3.67-12.11-3.67-12.11c0,0-.5-2.43-2.35-3.73-.95-.66-7.42-4.87-7.42-4.87l-1.6-6.75-25.98-.95Z"/><path class="cls-2" d="M1883.92,304.54c-3.3.62-10.49,4.84-10.66,8.21-.2,3.99,6.04,11.56,9.91,12.53,4.67,1.17,15.69-.38,18.85-4.03,1.85-2.14,1.9-8.9.41-11.31-2.53-4.11-13.77-6.29-18.51-5.4Z"/></g></svg>